<?xml version="1.0" encoding="utf-8"?>
<!-- Generator: Adobe Illustrator 22.1.0, SVG Export Plug-In . SVG Version: 6.00 Build 0)  -->
<svg version="1.1" id="Layer_1" xmlns="http://www.w3.org/2000/svg" xmlns:xlink="http://www.w3.org/1999/xlink" x="0px" y="0px"
	 viewBox="0 0 140 140.4" style="enable-background:new 0 0 140 140.4;" xml:space="preserve">
<style type="text/css">
	.st0{fill:#E01E5A;}
	.st1{fill:#36C5F0;}
	.st2{fill:#2EB67D;}
	.st3{fill:#ECB22E;}
</style>
<g>
	<g>
		<path class="st0" d="M32.2,85c0,7.3-5.9,13.2-13.2,13.2S5.8,92.3,5.8,85S11.7,71.8,19,71.8h13.2V85z"/>
		<path class="st0" d="M38.8,85c0-7.3,5.9-13.2,13.2-13.2S65.2,77.7,65.2,85v33c0,7.3-5.9,13.2-13.2,13.2s-13.2-5.9-13.2-13.2V85z"
			/>
	</g>
	<g>
		<path class="st1" d="M52,32c-7.3,0-13.2-5.9-13.2-13.2c0-7.3,5.9-13.2,13.2-13.2s13.2,5.9,13.2,13.2V32H52z"/>
		<path class="st1" d="M52,38.7c7.3,0,13.2,5.9,13.2,13.2c0,7.3-5.9,13.2-13.2,13.2H18.9c-7.3,0-13.2-5.9-13.2-13.2
			c0-7.3,5.9-13.2,13.2-13.2H52z"/>
	</g>
	<g>
		<path class="st2" d="M104.9,51.9c0-7.3,5.9-13.2,13.2-13.2s13.2,5.9,13.2,13.2c0,7.3-5.9,13.2-13.2,13.2h-13.2V51.9z"/>
		<path class="st2" d="M98.3,51.9c0,7.3-5.9,13.2-13.2,13.2s-13.2-5.9-13.2-13.2V18.8c0-7.3,5.9-13.2,13.2-13.2s13.2,5.9,13.2,13.2
			V51.9z"/>
	</g>
	<g>
		<path class="st3" d="M85.1,104.8c7.3,0,13.2,5.9,13.2,13.2s-5.9,13.2-13.2,13.2s-13.2-5.9-13.2-13.2v-13.2H85.1z"/>
		<path class="st3" d="M85.1,98.2c-7.3,0-13.2-5.9-13.2-13.2s5.9-13.2,13.2-13.2h33.1c7.3,0,13.2,5.9,13.2,13.2s-5.9,13.2-13.2,13.2
			H85.1z"/>
	</g>
</g>
</svg>
