<?xml version="1.0" encoding="utf-8"?>
<!-- Generator: Adobe Illustrator 22.1.0, SVG Export Plug-In . SVG Version: 6.00 Build 0)  -->
<svg version="1.1" id="Layer_1" xmlns="http://www.w3.org/2000/svg" xmlns:xlink="http://www.w3.org/1999/xlink" x="0px" y="0px"
	 viewBox="0 0 508.3 140.4" style="enable-background:new 0 0 508.3 140.4;" xml:space="preserve">
<style type="text/css">
	.st0{fill:#E01E5A;}
	.st1{fill:#36C5F0;}
	.st2{fill:#2EB67D;}
	.st3{fill:#ECB22E;}
</style>
<g>
	<g>
		<path d="M164.5,104.5l6.2-14.4c6.7,5,15.6,7.6,24.4,7.6c6.5,0,10.6-2.5,10.6-6.3c-0.1-10.6-38.9-2.3-39.2-28.9
			c-0.1-13.5,11.9-23.9,28.9-23.9c10.1,0,20.2,2.5,27.4,8.2L217,61.5c-6.6-4.2-14.8-7.2-22.6-7.2c-5.3,0-8.8,2.5-8.8,5.7
			c0.1,10.4,39.2,4.7,39.6,30.1c0,13.8-11.7,23.5-28.5,23.5C184.4,113.6,173.1,110.7,164.5,104.5"/>
		<path d="M402.4,84.9c-3.1,5.4-8.9,9.1-15.6,9.1c-9.9,0-17.9-8-17.9-17.9s8-17.9,17.9-17.9c6.7,0,12.5,3.7,15.6,9.1l17.1-9.5
			c-6.4-11.4-18.7-19.2-32.7-19.2c-20.7,0-37.5,16.8-37.5,37.5s16.8,37.5,37.5,37.5c14.1,0,26.3-7.7,32.7-19.2L402.4,84.9z"/>
		<rect x="233.8" y="7.5" width="21.4" height="104.7"/>
		<polygon points="427.9,7.5 427.9,112.2 449.3,112.2 449.3,80.8 474.7,112.2 502.1,112.2 469.8,74.9 499.7,40.1 473.5,40.1 
			449.3,69 449.3,7.5 		"/>
		<path d="M318.8,85.1c-3.1,5.1-9.5,8.9-16.7,8.9c-9.9,0-17.9-8-17.9-17.9s8-17.9,17.9-17.9c7.2,0,13.6,4,16.7,9.2V85.1z
			 M318.8,40.1v8.5c-3.5-5.9-12.2-10-21.3-10c-18.8,0-33.6,16.6-33.6,37.4s14.8,37.6,33.6,37.6c9.1,0,17.8-4.1,21.3-10v8.5h21.4v-72
			C340.2,40.1,318.8,40.1,318.8,40.1z"/>
	</g>
	<g>
		<g>
			<path class="st0" d="M32.2,85c0,7.3-5.9,13.2-13.2,13.2S5.8,92.3,5.8,85S11.7,71.8,19,71.8h13.2V85z"/>
			<path class="st0" d="M38.8,85c0-7.3,5.9-13.2,13.2-13.2S65.2,77.7,65.2,85v33c0,7.3-5.9,13.2-13.2,13.2s-13.2-5.9-13.2-13.2V85z"
				/>
		</g>
		<g>
			<path class="st1" d="M52,32c-7.3,0-13.2-5.9-13.2-13.2c0-7.3,5.9-13.2,13.2-13.2s13.2,5.9,13.2,13.2V32H52z"/>
			<path class="st1" d="M52,38.7c7.3,0,13.2,5.9,13.2,13.2c0,7.3-5.9,13.2-13.2,13.2H18.9c-7.3,0-13.2-5.9-13.2-13.2
				c0-7.3,5.9-13.2,13.2-13.2H52z"/>
		</g>
		<g>
			<path class="st2" d="M104.9,51.9c0-7.3,5.9-13.2,13.2-13.2s13.2,5.9,13.2,13.2c0,7.3-5.9,13.2-13.2,13.2h-13.2V51.9z"/>
			<path class="st2" d="M98.3,51.9c0,7.3-5.9,13.2-13.2,13.2s-13.2-5.9-13.2-13.2V18.8c0-7.3,5.9-13.2,13.2-13.2s13.2,5.9,13.2,13.2
				V51.9z"/>
		</g>
		<g>
			<path class="st3" d="M85.1,104.8c7.3,0,13.2,5.9,13.2,13.2s-5.9,13.2-13.2,13.2s-13.2-5.9-13.2-13.2v-13.2H85.1z"/>
			<path class="st3" d="M85.1,98.2c-7.3,0-13.2-5.9-13.2-13.2s5.9-13.2,13.2-13.2h33.1c7.3,0,13.2,5.9,13.2,13.2
				s-5.9,13.2-13.2,13.2H85.1z"/>
		</g>
	</g>
</g>
</svg>
